{"title":"Windtalkers-AC3-XviD-BRRip 2002 TBS","uid":6362031,"size":1885114460,"categoryP":"video","categoryS":"movies","magnet":"?xt=urn:btih:f40bea71369b47bb2db53706686679421e165603&amp;dn=Windtalkers-AC3-XviD-BRRip+2002+TBS&amp;tr=udp%3A%2F%2Ftracker.openbittorrent.com%3A80&amp;tr=udp%3A%2F%2Fopen.demonii.com%3A1337&amp;tr=udp%3A%2F%2Ftracker.coppersurfer.tk%3A6969&amp;tr=udp%3A%2F%2Fexodus.desync.com%3A6969","seeders":0,"leechers":2,"uploader":"FatFreddy30","files":-1,"time":1304367167,"description":"Two U.S. Marines in WWII are assigned to protect Navajo Marines who use their native language as an unbreakable radio cypher...\n &lt;a href=&quot;\nhttp://www.imdb.com/title/tt0245562/&quot; rel=&quot;nofollow&quot; target=&quot;_NEW&quot;&gt;\nhttp://www.imdb.com/title/tt0245562/&lt;/a&gt;\n\nSubs: Dutch, English.\n\n\nTijdens de Tweede Wereldoorlog werd de taal van de Navajo-Indianen gebruikt om top-secret boodschappen te coderen, aangezien de Japanners deze niet konden breken. Ze proberen hier iets aan te doen door Navajo-soldaten te kidnappen. Een marinier wordt aangesteld als bodyguard. Hij krijgt als taak om, als de Navajo-soldaat gevangen genomen dreigt te worden, hem dan maar te vermoorden...\n &lt;a href=&quot;\nhttp://www.moviemeter.nl/film/953&quot; rel=&quot;nofollow&quot; target=&quot;_NEW&quot;&gt;\nhttp://www.moviemeter.nl/film/953&lt;/a&gt;\n\nSubs: Engels, Nederlands.\n\nHardcoded english subs when needed.\n\n\nGeneral\nComplete name                    : Windtalkers-AC3-XviD-BRRip 2002.avi\nFormat                           : AVI\nFormat/Info                      : Audio Video Interleave\nFile size                        : 1.76 GiB\nDuration                         : 2h 14mn\nOverall bit rate                 : 1 870 Kbps\nWriting application              : VirtualDubMod 1.5.4.1 (build 2178/release)\nWriting library                  : VirtualDubMod build 2178/release\nSource                           : Windtalkers.2002.720p.BluRay.DTS.x264-Rx\n\nVideo\nID                               : 0\nFormat                           : MPEG-4 Visual\nFormat profile                   : Simple@L3\nFormat settings, BVOP            : No\nFormat settings, QPel            : No\nFormat settings, GMC             : No warppoints\nFormat settings, Matrix          : Default (H.263)\nCodec ID                         : XVID\nCodec ID/Hint                    : XviD\nDuration                         : 2h 14mn\nBit rate                         : 1 413 Kbps\nWidth                            : 720 pixels\nHeight                           : 304 pixels\nDisplay aspect ratio             : 2.35:1\nFrame rate                       : 23.976 fps\nResolution                       : 8 bits\nColorimetry                      : 4:2:0\nScan type                        : Progressive\nBits/(Pixel*Frame)               : 0.269\nStream size                      : 1.33 GiB (76%)\nWriting library                  : XviD 1.1.2 (UTC 2006-11-01)\n\nAudio\nID                               : 1\nFormat                           : AC-3\nFormat/Info                      : Audio Coding 3\nCodec ID                         : 2000\nDuration                         : 2h 14mn\nBit rate mode                    : Constant\nBit rate                         : 448 Kbps\nChannel(s)                       : 6 channels\nChannel positions                : Front: L C R, Surround: L R, LFE\nSampling rate                    : 48.0 KHz\nStream size                      : 430 MiB (24%)\nAlignment                        : Split accross interleaves\nInterleave, duration             : 42 ms (1.00 video frame)\nInterleave, preload duration     : 500 ms\n\nEnjoy...\n\nTBS.","torrent":{"xt":"urn:btih:f40bea71369b47bb2db53706686679421e165603","amp;dn":"Windtalkers-AC3-XviD-BRRip+2002+TBS","amp;tr":["udp%3A%2F%2Ftracker.openbittorrent.com%3A80","udp%3A%2F%2Fopen.demonii.com%3A1337","udp%3A%2F%2Ftracker.coppersurfer.tk%3A6969","udp%3A%2F%2Fexodus.desync.com%3A6969"],"infoHash":"f40bea71369b47bb2db53706686679421e165603","infoHashBuffer":{"type":"Buffer","data":[244,11,234,113,54,155,71,187,45,181,55,6,104,102,121,66,30,22,86,3]},"announce":[],"urlList":[]}}